<svg width="69" height="68" viewBox="0 0 69 68" fill="none" xmlns="http://www.w3.org/2000/svg">
<path d="M13.25 10.625C8.55558 10.625 4.75 14.4306 4.75 19.125V21.25H64.25V19.125C64.25 14.4306 60.4444 10.625 55.75 10.625H13.25Z" fill="black"/>
<path fill-rule="evenodd" clip-rule="evenodd" d="M64.25 27.625H4.75V48.875C4.75 53.5694 8.55558 57.375 13.25 57.375H55.75C60.4444 57.375 64.25 53.5694 64.25 48.875V27.625ZM13.25 38.25C13.25 37.0764 14.2014 36.125 15.375 36.125H32.375C33.5486 36.125 34.5 37.0764 34.5 38.25C34.5 39.4236 33.5486 40.375 32.375 40.375H15.375C14.2014 40.375 13.25 39.4236 13.25 38.25ZM15.375 44.625C14.2014 44.625 13.25 45.5764 13.25 46.75C13.25 47.9236 14.2014 48.875 15.375 48.875H23.875C25.0486 48.875 26 47.9236 26 46.75C26 45.5764 25.0486 44.625 23.875 44.625H15.375Z" fill="black"/>
</svg>
