<svg width="146" height="33" viewBox="0 0 146 33" fill="none" xmlns="http://www.w3.org/2000/svg">
<path fill-rule="evenodd" clip-rule="evenodd" d="M12.5769 8.58621C12.5769 8.26245 12.2842 8 11.9231 8C11.562 8 11.2692 8.26245 11.2692 8.58621V9.75862H10.6154C9.17095 9.75862 8 10.8084 8 12.1034V22.6552C8 23.9502 9.17095 25 10.6154 25H22.3846C23.8291 25 25 23.9502 25 22.6552V12.1034C25 10.8084 23.8291 9.75862 22.3846 9.75862H21.7308V8.58621C21.7308 8.26245 21.438 8 21.0769 8C20.7158 8 20.4231 8.26245 20.4231 8.58621V9.75862H12.5769V8.58621ZM22.3846 13.8621C23.1068 13.8621 23.6923 14.387 23.6923 15.0345V22.6552C23.6923 23.3027 23.1068 23.8276 22.3846 23.8276H10.6154C9.89317 23.8276 9.30769 23.3027 9.30769 22.6552V15.0345C9.30769 14.387 9.89317 13.8621 10.6154 13.8621H22.3846ZM13.3292 20.632C13.0057 20.4897 12.6221 20.5792 12.413 20.8642C12.1502 21.2226 12.2706 21.7317 12.6837 21.8955C12.7541 21.9234 12.8255 21.9508 12.898 21.9776C13.2556 22.1059 13.6302 22.2173 14.0218 22.312C14.4168 22.4036 14.8289 22.4738 15.258 22.5226C15.687 22.5745 16.1264 22.6005 16.5759 22.6005C17.257 22.6005 17.8751 22.544 18.4301 22.431C18.9852 22.315 19.4586 22.1471 19.8502 21.9273C20.2452 21.7044 20.5483 21.4327 20.7595 21.1121C20.974 20.7884 21.0813 20.4205 21.0813 20.0084C21.0813 19.7 21.0183 19.4221 20.8923 19.1748C20.7663 18.9245 20.5807 18.7123 20.3355 18.5383C20.0903 18.3612 19.7855 18.2253 19.4211 18.1307C19.0601 18.036 18.6447 17.9887 18.1747 17.9887C17.9261 17.9887 17.669 18.0009 17.4034 18.0253C17.1412 18.0467 16.8824 18.0711 16.627 18.0986C16.375 18.1261 16.1332 18.152 15.9016 18.1765C15.6734 18.1978 15.4708 18.2085 15.2937 18.2085C14.8544 18.2085 14.5275 18.1413 14.313 18.007C14.0984 17.8696 13.9911 17.6941 13.9911 17.4803C13.9911 17.3704 14.0235 17.2605 14.0882 17.1506C14.1563 17.0376 14.2755 16.9369 14.4458 16.8483C14.616 16.7567 14.8442 16.6819 15.1303 16.6239C15.4197 16.5659 15.7875 16.5369 16.2336 16.5369C16.5469 16.5369 16.8534 16.5537 17.1531 16.5873C17.4562 16.6178 17.749 16.6606 18.0317 16.7155C18.3144 16.7705 18.5851 16.8361 18.8439 16.9124C18.9065 16.9302 18.968 16.9483 19.0286 16.9669C19.3448 17.064 19.6946 16.9483 19.8659 16.6653C20.0826 16.3075 19.9266 15.8405 19.5253 15.7223C19.4825 15.7097 19.4393 15.6973 19.3956 15.6851C19.0789 15.5935 18.7485 15.5156 18.4046 15.4515C18.0641 15.3874 17.7133 15.3385 17.3523 15.305C16.9913 15.2683 16.6321 15.25 16.2745 15.25C15.7807 15.25 15.3397 15.2821 14.9515 15.3462C14.5667 15.4072 14.2261 15.4927 13.9298 15.6026C13.637 15.7126 13.3867 15.8438 13.1789 15.9965C12.9712 16.1461 12.8009 16.3094 12.6681 16.4865C12.5387 16.6606 12.4434 16.8438 12.3821 17.0361C12.3242 17.2284 12.2952 17.4223 12.2952 17.6177C12.2952 17.9475 12.3701 18.236 12.52 18.4833C12.6698 18.7306 12.8707 18.9367 13.1227 19.1016C13.3782 19.2664 13.6693 19.3901 13.9962 19.4725C14.3266 19.555 14.6705 19.5962 15.0281 19.5962C15.2426 19.5962 15.4708 19.584 15.7126 19.5595C15.9578 19.5321 16.2047 19.5031 16.4533 19.4725C16.7053 19.442 16.9539 19.4145 17.1991 19.3901C17.4443 19.3626 17.6775 19.3489 17.8989 19.3489C18.4029 19.3489 18.7758 19.4252 19.0176 19.5779C19.2594 19.7275 19.3803 19.932 19.3803 20.1915C19.3803 20.3534 19.3309 20.503 19.2321 20.6404C19.1368 20.7777 18.9818 20.8968 18.7673 20.9976C18.5561 21.0953 18.282 21.1731 17.9449 21.2311C17.6077 21.2861 17.1991 21.3136 16.7189 21.3136C16.3205 21.3136 15.9442 21.2922 15.59 21.2495C15.2392 21.2067 14.9038 21.1457 14.5837 21.0663C14.2636 20.9838 13.9537 20.8846 13.654 20.7686C13.5453 20.7249 13.437 20.6794 13.3292 20.632Z" fill="white"/>
<path d="M38.6321 25C37.7176 25 36.8362 24.8933 35.988 24.68C35.5988 24.5743 35.247 24.4571 34.9326 24.3282C34.3696 24.0975 34.1869 23.4349 34.4419 22.8825C34.756 22.202 35.6009 21.953 36.3055 22.2084C36.4533 22.2619 36.6059 22.3125 36.7634 22.36C37.4393 22.5467 38.102 22.64 38.7514 22.64C39.4671 22.64 39.9707 22.5533 40.2623 22.38C40.5671 22.2067 40.7195 21.9667 40.7195 21.66C40.7195 21.4067 40.6002 21.22 40.3617 21.1C40.1364 20.9667 39.8315 20.8667 39.4472 20.8C39.0628 20.7333 38.6387 20.6667 38.1748 20.6C37.7242 20.5333 37.267 20.4467 36.8031 20.34C36.3392 20.22 35.9151 20.0467 35.5308 19.82C35.1464 19.5933 34.835 19.2867 34.5964 18.9C34.3711 18.5133 34.2584 18.0133 34.2584 17.4C34.2584 16.72 34.4506 16.12 34.835 15.6C35.2326 15.08 35.8025 14.6733 36.5447 14.38C37.2869 14.0733 38.1748 13.92 39.2086 13.92C39.9376 13.92 40.6798 14 41.4352 14.16C41.7563 14.228 42.0546 14.3092 42.3302 14.4037C42.9202 14.6061 43.1247 15.2877 42.8613 15.8532C42.5555 16.51 41.7505 16.7372 41.0531 16.5406C40.9422 16.5093 40.831 16.4824 40.7195 16.46C40.2026 16.34 39.699 16.28 39.2086 16.28C38.5194 16.28 38.0158 16.3733 37.6977 16.56C37.3796 16.7467 37.2206 16.9867 37.2206 17.28C37.2206 17.5467 37.3333 17.7467 37.5586 17.88C37.7971 18.0133 38.1086 18.12 38.4929 18.2C38.8773 18.28 39.2948 18.3533 39.7454 18.42C40.2093 18.4733 40.6731 18.56 41.137 18.68C41.6009 18.8 42.0184 18.9733 42.3895 19.2C42.7738 19.4133 43.0853 19.7133 43.3238 20.1C43.5624 20.4733 43.6817 20.9667 43.6817 21.58C43.6817 22.2467 43.4829 22.84 43.0853 23.36C42.6877 23.8667 42.1111 24.2667 41.3557 24.56C40.6135 24.8533 39.7056 25 38.6321 25Z" fill="white"/>
<path d="M50.764 25C49.611 25 48.5838 24.7667 47.6826 24.3C46.7813 23.82 46.0723 23.16 45.5554 22.32C45.0518 21.48 44.7999 20.5267 44.7999 19.46C44.7999 18.38 45.0518 17.4267 45.5554 16.6C46.0723 15.76 46.7813 15.1067 47.6826 14.64C48.5838 14.16 49.611 13.92 50.764 13.92C51.8906 13.92 52.8713 14.16 53.7063 14.64C54.1463 14.8859 54.5256 15.1892 54.8441 15.5499C55.3376 16.1087 55.0469 16.9347 54.391 17.2891C53.7041 17.6604 52.8757 17.3425 52.2214 16.9163C52.1803 16.8895 52.1385 16.8641 52.096 16.84C51.6851 16.6 51.2345 16.48 50.7441 16.48C50.214 16.48 49.7369 16.6 49.3127 16.84C48.8886 17.08 48.5507 17.42 48.2989 17.86C48.0603 18.3 47.941 18.8333 47.941 19.46C47.941 20.0867 48.0603 20.62 48.2989 21.06C48.5507 21.5 48.8886 21.84 49.3127 22.08C49.7369 22.32 50.214 22.44 50.7441 22.44C51.2345 22.44 51.6851 22.3267 52.096 22.1C52.138 22.0762 52.1794 22.051 52.22 22.0245C52.8782 21.5942 53.7124 21.2688 54.4018 21.6471C55.0517 22.0038 55.3346 22.8255 54.8435 23.3808C54.5251 23.7408 54.146 24.0472 53.7063 24.3C52.8713 24.7667 51.8906 25 50.764 25Z" fill="white"/>
<path d="M63.7834 13.92C64.6316 13.92 65.3871 14.0933 66.0497 14.44C66.7257 14.7733 67.2558 15.2933 67.6401 16C68.0245 16.6933 68.2167 17.5867 68.2167 18.68V23.2893C68.2167 24.1457 67.5224 24.84 66.666 24.84C65.8096 24.84 65.1154 24.1457 65.1154 23.2893V19.16C65.1154 18.2933 64.9232 17.6533 64.5388 17.24C64.1677 16.8267 63.6376 16.62 62.9484 16.62C62.458 16.62 62.014 16.7267 61.6164 16.94C61.2321 17.14 60.9273 17.4533 60.7019 17.88C60.4899 18.3067 60.3839 18.8533 60.3839 19.52V23.2893C60.3839 24.1457 59.6896 24.84 58.8332 24.84C57.9768 24.84 57.2825 24.1457 57.2825 23.2893V11.5507C57.2825 10.6943 57.9768 10 58.8332 10C59.6896 10 60.3839 10.6943 60.3839 11.5507V16.1282C60.3839 16.4317 59.9995 16.5629 59.814 16.3229C59.7373 16.2238 59.7251 16.0883 59.7892 15.9807C60.1667 15.3475 60.683 14.8539 61.3381 14.5C62.0538 14.1133 62.8689 13.92 63.7834 13.92Z" fill="white"/>
<path d="M76.4135 25C75.1942 25 74.1207 24.76 73.1929 24.28C72.2785 23.8 71.5694 23.1467 71.0658 22.32C70.5621 21.48 70.3103 20.5267 70.3103 19.46C70.3103 18.38 70.5555 17.4267 71.0459 16.6C71.5495 15.76 72.2321 15.1067 73.0935 14.64C73.955 14.16 74.9291 13.92 76.0159 13.92C77.063 13.92 78.004 14.1467 78.8389 14.6C79.6872 15.04 80.3565 15.68 80.8468 16.52C81.3372 17.3467 81.5824 18.34 81.5824 19.5C81.5824 19.62 81.5758 19.76 81.5625 19.92C81.541 20.1585 81.3403 20.34 81.1009 20.34H73.7451C73.2425 20.34 72.8351 19.9326 72.8351 19.43C72.8351 18.9274 73.2425 18.52 73.7451 18.52H78.9115C79.1394 18.52 79.2064 18.8306 78.9988 18.9246C78.8587 18.9881 78.6992 18.8854 78.6862 18.7321C78.6501 18.3078 78.5419 17.9305 78.3618 17.6C78.1365 17.1867 77.825 16.8667 77.4274 16.64C77.0298 16.4 76.566 16.28 76.0358 16.28C75.5057 16.28 75.0352 16.4 74.6243 16.64C74.2267 16.8667 73.9153 17.1933 73.6899 17.62C73.4646 18.0333 73.352 18.5267 73.352 19.1V19.58C73.352 20.1667 73.4779 20.6867 73.7297 21.14C73.9948 21.58 74.3593 21.92 74.8231 22.16C75.3002 22.3867 75.8569 22.5 76.4931 22.5C77.063 22.5 77.56 22.4133 77.9841 22.24C78.0243 22.224 78.0643 22.2074 78.1038 22.1899C78.758 21.902 79.5756 21.8949 80.0585 22.4217C80.4959 22.8988 80.5122 23.6458 79.9812 24.016C79.6773 24.2279 79.3429 24.4093 78.9781 24.56C78.2359 24.8533 77.3811 25 76.4135 25Z" fill="white"/>
<path d="M88.2395 25C87.2322 25 86.3244 24.7733 85.5159 24.32C84.7074 23.8533 84.0646 23.2067 83.5875 22.38C83.1236 21.5533 82.8917 20.58 82.8917 19.46C82.8917 18.3267 83.1236 17.3467 83.5875 16.52C84.0646 15.6933 84.7074 15.0533 85.5159 14.6C86.3244 14.1467 87.2322 13.92 88.2395 13.92C89.1407 13.92 89.9293 14.12 90.6052 14.52C91.2812 14.92 91.8047 15.5267 92.1758 16.34C92.5469 17.1533 92.7324 18.1933 92.7324 19.46C92.7324 20.7133 92.5535 21.7533 92.1957 22.58C91.8378 23.3933 91.3209 24 90.645 24.4C89.9823 24.8 89.1805 25 88.2395 25ZM88.7763 22.44C89.2799 22.44 89.7371 22.32 90.148 22.08C90.5588 21.84 90.8836 21.5 91.1221 21.06C91.3739 20.6067 91.4998 20.0733 91.4998 19.46C91.4998 18.8333 91.3739 18.3 91.1221 17.86C90.8836 17.42 90.5588 17.08 90.148 16.84C89.7371 16.6 89.2799 16.48 88.7763 16.48C88.2594 16.48 87.7955 16.6 87.3846 16.84C86.9738 17.08 86.6424 17.42 86.3906 17.86C86.1521 18.3 86.0328 18.8333 86.0328 19.46C86.0328 20.0733 86.1521 20.6067 86.3906 21.06C86.6424 21.5 86.9738 21.84 87.3846 22.08C87.7955 22.32 88.2594 22.44 88.7763 22.44ZM93.0604 24.84C92.2425 24.84 91.5794 24.1769 91.5794 23.3589V22.64L91.639 19.44L91.4402 16.26V11.5507C91.4402 10.6943 92.1345 10 92.9909 10C93.8473 10 94.5415 10.6943 94.5415 11.5507V23.3589C94.5415 24.1769 93.8784 24.84 93.0604 24.84Z" fill="white"/>
<path d="M98.9625 24.84C98.1061 24.84 97.4119 24.1457 97.4119 23.2893V11.5507C97.4119 10.6943 98.1061 10 98.9625 10C99.8189 10 100.513 10.6943 100.513 11.5507V23.2893C100.513 24.1457 99.8189 24.84 98.9625 24.84Z" fill="white"/>
<path d="M104.564 25C104.034 25 103.577 24.82 103.193 24.46C102.822 24.0867 102.636 23.6133 102.636 23.04C102.636 22.4667 102.822 22.0067 103.193 21.66C103.577 21.3 104.034 21.12 104.564 21.12C105.108 21.12 105.565 21.3 105.936 21.66C106.307 22.0067 106.493 22.4667 106.493 23.04C106.493 23.6133 106.307 24.0867 105.936 24.46C105.565 24.82 105.108 25 104.564 25Z" fill="white"/>
<path d="M122.292 13.92C123.14 13.92 123.889 14.0933 124.538 14.44C125.201 14.7733 125.718 15.2933 126.089 16C126.473 16.6933 126.666 17.5867 126.666 18.68V23.2893C126.666 24.1457 125.971 24.84 125.115 24.84C124.259 24.84 123.564 24.1457 123.564 23.2893V19.16C123.564 18.2933 123.385 17.6533 123.028 17.24C122.67 16.8267 122.166 16.62 121.517 16.62C121.066 16.62 120.662 16.7267 120.304 16.94C119.946 17.14 119.668 17.4467 119.469 17.86C119.27 18.2733 119.171 18.8 119.171 19.44V23.2893C119.171 24.1457 118.477 24.84 117.62 24.84C116.764 24.84 116.069 24.1457 116.069 23.2893V19.16C116.069 18.2933 115.891 17.6533 115.533 17.24C115.188 16.8267 114.691 16.62 114.042 16.62C113.591 16.62 113.187 16.7267 112.829 16.94C112.471 17.14 112.193 17.4467 111.994 17.86C111.795 18.2733 111.696 18.8 111.696 19.44V23.2893C111.696 24.1457 111.002 24.84 110.145 24.84C109.289 24.84 108.595 24.1457 108.595 23.2893V15.5611C108.595 14.7431 109.258 14.08 110.076 14.08H110.886C111.257 14.08 111.557 14.3802 111.557 14.7504V16.1442C111.557 16.402 111.221 16.5012 111.081 16.2848C111.031 16.2075 111.025 16.1092 111.069 16.0285C111.435 15.3602 111.936 14.8507 112.571 14.5C113.26 14.1133 114.042 13.92 114.916 13.92C115.897 13.92 116.752 14.1733 117.481 14.68C118.058 15.0638 118.483 15.609 118.756 16.3157C118.866 16.5995 118.596 16.8622 118.302 16.7817C118.068 16.7173 117.942 16.4597 118.06 16.2466C118.416 15.5983 118.919 15.0695 119.568 14.66C120.364 14.1667 121.271 13.92 122.292 13.92Z" fill="white"/>
<path d="M134.831 25C133.612 25 132.538 24.76 131.611 24.28C130.696 23.8 129.987 23.1467 129.483 22.32C128.98 21.48 128.728 20.5267 128.728 19.46C128.728 18.38 128.973 17.4267 129.463 16.6C129.967 15.76 130.65 15.1067 131.511 14.64C132.373 14.16 133.347 13.92 134.434 13.92C135.481 13.92 136.422 14.1467 137.257 14.6C138.105 15.04 138.774 15.68 139.264 16.52C139.755 17.3467 140 18.34 140 19.5C140 19.62 139.993 19.76 139.98 19.92C139.959 20.1585 139.758 20.34 139.518 20.34H132.163C131.66 20.34 131.253 19.9326 131.253 19.43C131.253 18.9274 131.66 18.52 132.163 18.52H137.329C137.557 18.52 137.624 18.8306 137.416 18.9246C137.276 18.9881 137.117 18.8854 137.104 18.7321C137.068 18.3078 136.96 17.9305 136.779 17.6C136.554 17.1867 136.243 16.8667 135.845 16.64C135.447 16.4 134.984 16.28 134.453 16.28C133.923 16.28 133.453 16.4 133.042 16.64C132.644 16.8667 132.333 17.1933 132.108 17.62C131.882 18.0333 131.77 18.5267 131.77 19.1V19.58C131.77 20.1667 131.895 20.6867 132.147 21.14C132.412 21.58 132.777 21.92 133.241 22.16C133.718 22.3867 134.274 22.5 134.911 22.5C135.481 22.5 135.978 22.4133 136.402 22.24C136.442 22.224 136.482 22.2074 136.521 22.1899C137.176 21.902 137.993 21.8949 138.476 22.4217C138.913 22.8988 138.93 23.6458 138.399 24.016C138.095 24.2279 137.76 24.4093 137.396 24.56C136.653 24.8533 135.799 25 134.831 25Z" fill="white"/>
<g filter="url(#filter0_dd_357_28953)">
<circle cx="25" cy="11" r="4" fill="#53B483" stroke="white"/>
</g>
<defs>
<filter id="filter0_dd_357_28953" x="15.5" y="3.5" width="19" height="19" filterUnits="userSpaceOnUse" color-interpolation-filters="sRGB">
<feFlood flood-opacity="0" result="BackgroundImageFix"/>
<feColorMatrix in="SourceAlpha" type="matrix" values="0 0 0 0 0 0 0 0 0 0 0 0 0 0 0 0 0 0 127 0" result="hardAlpha"/>
<feOffset dy="2"/>
<feGaussianBlur stdDeviation="2.5"/>
<feComposite in2="hardAlpha" operator="out"/>
<feColorMatrix type="matrix" values="0 0 0 0 0.403922 0 0 0 0 0.431373 0 0 0 0 0.462745 0 0 0 0.08 0"/>
<feBlend mode="normal" in2="BackgroundImageFix" result="effect1_dropShadow_357_28953"/>
<feColorMatrix in="SourceAlpha" type="matrix" values="0 0 0 0 0 0 0 0 0 0 0 0 0 0 0 0 0 0 127 0" result="hardAlpha"/>
<feOffset dy="1"/>
<feGaussianBlur stdDeviation="0.5"/>
<feComposite in2="hardAlpha" operator="out"/>
<feColorMatrix type="matrix" values="0 0 0 0 0 0 0 0 0 0 0 0 0 0 0 0 0 0 0.12 0"/>
<feBlend mode="normal" in2="effect1_dropShadow_357_28953" result="effect2_dropShadow_357_28953"/>
<feBlend mode="normal" in="SourceGraphic" in2="effect2_dropShadow_357_28953" result="shape"/>
</filter>
</defs>
</svg>
